<svg xmlns="http://www.w3.org/2000/svg" enable-background="new 0 0 47.5 47.5" viewBox="0 0 47.5 47.5"><defs><clipPath id="a"><path d="M0 38h38V0H0v38Z"/></clipPath></defs><g clip-path="url(#a)" transform="matrix(1.25 0 0 -1.25 0 47.5)"><path fill="#3b88c3" d="M0 0a4 4 0 0 0-4-4h-28a4 4 0 0 0-4 4v28a4 4 0 0 0 4 4h28a4 4 0 0 0 4-4V0Z" transform="translate(37 5)"/><path fill="#fff" d="M0 0c1.953 0 2.729-.992 2.729-2.977 0-5.983-3.907-10.48-10.108-10.48-6.294 0-10.666 4.993-10.666 11.411 0 6.449 4.34 11.41 10.666 11.41 4.682 0 8.525-2.201 8.525-4.372 0-1.333-.835-2.17-1.921-2.17-2.108 0-2.542 2.263-6.604 2.263-3.876 0-5.829-3.379-5.829-7.131 0-3.783 1.891-7.132 5.829-7.132 2.449 0 5.272 1.365 5.272 4.899h-3.164c-1.271 0-2.17.9-2.17 2.171C-7.441-.806-6.449 0-5.271 0H0Z" transform="translate(26.66 21.084)"/></g></svg>